<?xml version="1.0" encoding="UTF-8"?><svg id="Layer_1" xmlns="http://www.w3.org/2000/svg" xmlns:xlink="http://www.w3.org/1999/xlink" viewBox="0 0 172.79 225.74"><defs><style>.cls-1{fill:#ef6c00;}.cls-1,.cls-2,.cls-3,.cls-4,.cls-5,.cls-6,.cls-7,.cls-8,.cls-9{fill-rule:evenodd;}.cls-2{fill:#e5e5e5;}.cls-3{fill:#fff;}.cls-4{fill:#f4f2f2;}.cls-5{fill:#663009;}.cls-10,.cls-7{fill:#ffc00d;}.cls-6{fill:#09ba99;}.cls-11{clip-path:url(#clippath);}.cls-12{clip-rule:evenodd;fill:none;}.cls-8{fill:#f57c00;}.cls-9{fill:#e8980c;}</style><clipPath id="clippath"><path class="cls-12" d="m117.42,35.75c4.87.02,10.46.44,14.94,1.34,4.69.94,9.08,2.3,10.14,5.67.52,1.65-.15,3.8-.04,5.27.1,1.3,1.1,2.63,1.64,3.75.58,1.21,1.45,2.49,1.29,3.96-.25,2.27-2.96,3.41-5.48,4.07-2.59.69-5.34,1.11-7.75,1.44-5.85.8-11.75,1.1-17.24,1.07-2.88-.02-6.17-.43-9.48-.6-3.04-.16-6.28-.29-9.36-.59-2.73-.27-5.89-.43-8.76-1.14-2.35-.58-5.52-1.78-5.76-3.84-.23-1.88,1.27-3.51,2.07-4.59,1.03-1.38,2.4-2.52,2.72-3.87.22-.93-.06-2.18.06-3.32.11-1.16.37-2,.71-2.71,1.22-2.56,4.55-3.5,7.77-4.19,2.33-.49,4.7-.78,7.04-1.01,5.31-.52,10.23-.71,15.5-.7Z"/></clipPath></defs><path class="cls-8" d="m141.58,58.53c.54.47.24,1.48.22,2.42-.29,12.67-.3,26.74-1.59,40.13-1.36,14.11-2.12,28.47-3.52,42.1-11.55,3.56-30.58,3.79-43.28-.49-1.94-13.51-3.7-27.23-5-41.27-.64-6.96-1.57-13.96-2.02-21.07-.45-7.17-.65-14.43-1.3-21.72,11.01-.88,22.92-.48,35.06-.04,2.32.08,4.59-.16,6.88-.11,4.94.12,9.98.2,14.55.06Z"/><path class="cls-3" d="m92,67.45c.06,0,.18-.15.35-.1,1.73.56,1.37,4.87,1.46,7.18.24,5.59.44,10.42.66,16.19.11,2.74.54,6.76-1.5,6.91-2.22.17-2.01-2.52-2.15-5.04-.25-4.37-.47-8.9-.58-13.21-.05-2.11-.23-4.35-.11-6.77.1-2.06.13-5,1.87-5.17Z"/><path class="cls-3" d="m92.32,108.37c-.47-1.18-.76-7.53,1.91-5.97.73.43,1.42,6.2-.12,6.75-.72.26-1.12-.45-1.79-.78Z"/><path class="cls-3" d="m117.42,35.75c4.87.02,10.46.44,14.94,1.34,4.69.94,9.08,2.3,10.14,5.67.52,1.65-.15,3.8-.04,5.27.1,1.3,1.1,2.63,1.64,3.75.58,1.21,1.45,2.49,1.29,3.96-.25,2.27-2.96,3.41-5.48,4.07-2.59.69-5.34,1.11-7.75,1.44-5.85.8-11.75,1.1-17.24,1.07-2.88-.02-6.17-.43-9.48-.6-3.04-.16-6.28-.29-9.36-.59-2.73-.27-5.89-.43-8.76-1.14-2.35-.58-5.52-1.78-5.76-3.84-.23-1.88,1.27-3.51,2.07-4.59,1.03-1.38,2.4-2.52,2.72-3.87.22-.93-.06-2.18.06-3.32.11-1.16.37-2,.71-2.71,1.22-2.56,4.55-3.5,7.77-4.19,2.33-.49,4.7-.78,7.04-1.01,5.31-.52,10.23-.71,15.5-.7Z"/><g class="cls-11"><path class="cls-4" d="m117.28,33.92c7.23.02,16.1.93,21.85,2.95,1.83.64,4.43,1.92,4.4,3.55-.03,1.95-2.87,2.79-4.98,3.3-6.54,1.55-14.49,1.69-22.08,1.62-5.01-.04-10.54-.41-15.99-1.05-2.31-.27-4.84-.5-7.51-1.07-2.02-.43-5.43-1.25-5.46-2.91-.02-1.04.91-1.41,1.82-1.97.84-.51,1.42-1.04,2.25-1.37,2.06-.83,3.62-1,5.8-1.42,6.16-1.2,12.01-1.65,19.9-1.62Z"/><path class="cls-4" d="m143.98,47.31c.5.27,3.22-.75,3.52.52.36,1.48-3.03,1.95-4.24,2.19-8.95,1.75-18.08,2.12-28.65,2.32-2.51.05-5.97.33-9.16-.01-1.1-.12-2.2-.36-2.24-1.03-.09-1.46,3.23-1.2,4.65-1.25,5.59-.2,11.03-.19,16.52-.53,6.3-.39,11.97-1.33,17.77-2.41.39-.07.83-.13,1.27-.17.31-.02.95-.36,1.14.17-.22.04-.3.23-.58.2Z"/><path class="cls-2" d="m130.91,38.62c1.1-.08,2.09.22,2.22,1.38.15,1.32-.85,1.97-2.08,2.53-1.39.63-4.91,1.81-4.89-.71.01-1.36,2.23-2.43,3.12-2.82.52-.22.97-.33,1.62-.38Z"/></g><path class="cls-8" d="m127.22,22.67c-.44.32-.78.5-.91.92,0,.61.63.68.8,1.37.21.89.11,2.34.11,3.55.02,4.53-.01,9.96-.09,14.76,1.92.6,6.39-.71,6.47-1.48.07-5.13.17-10.23.26-15.34.71-.13,1.52-.15,1.95-.57-.2-1.02-1.04-1.4-1.26-2.4.79-.27,1.7-.3,1.83-1.03.13-.7-.57-.99-.91-1.6,4.56-3.83,9.1-7.68,13.62-11.56-1.59-1.38-2.91-3.04-4.35-4.58-.15.04-.24.15-.34.23-3.18,2.45-7.37,5.73-10.87,8.7-1.09.93-2.6,2.73-3.55,2.97-.68.17-1.4-.22-1.83.11-.35.91.12,1.92.23,2.75-.64.16-1.44.16-1.94.46-.4.9,1.87,1.43,1.83,2.06-.01.26-.81.52-1.03.69Z"/><path class="cls-7" d="m61.3,85.99c.43.32.22.99.23,1.49.03,1.6.1,3.5.23,5.04,1.78-.28,3.55-.57,5.61-.57.33-1.16.15-2.82.34-4.12,2.59-.27,5.32-.4,7.89-.69-.08,1.95.19,3.55.11,5.49,1.06.16,3.51-.29,4.58.23.74,1.15.17,3.48.23,5.04,2.05.04,3.89.07,4.12,2.17.18,1.7-.13,3.94-.23,6.07-.26,5.45-.64,12.58-.8,17.85-17.64,2.49-34.72,5.56-52.63,7.78-3.13-11.36-5.69-23.29-8.24-35.24,2.72-.86,5.14-2.03,7.9-2.86,1.47,6.65,3.44,12.81,5.03,19.34-.11-6.49-.66-13.53-.91-20.25,3.21-.45,6.55-.77,9.84-1.14-.08,1.07.19,1.8.11,2.86,1.63-.1,3.2-.82,4.92-.46.2,2.62.19,5.45.46,8.01,1.13-.39,2.26-.79,3.43-1.14-.19-4.62-.29-9.39-.11-14.07,2.58-.32,5.36-.43,7.9-.8Z"/><path class="cls-9" d="m61.41,94.12c.19-.03.2.11.34.11.83,4.24.25,9.25.23,14.07-.02,3.58-.35,7.03-.57,10.53-.07,1.03.21,2.3-.57,3.09-.72-.58-.55-1.71-.57-2.52-.14-4.42.07-8.78.34-13.96.1-1.79.26-3.65.34-5.38.09-2.01-.07-3.98.23-5.49.01-.06.37-.11.23-.46Z"/><path class="cls-9" d="m67.7,95.15c.79.05.53,1.16.57,1.72.33,4.23-.09,9.59-.46,14.07-.08,1.03.04,2.43-.69,2.98-.79-.28-.45-1.37-.46-1.95-.03-5.43.32-11.54.69-16.59.06-.09.12-.19.11-.34.13-.02.2.03.23.12Z"/><path class="cls-9" d="m75.03,96.29c.13-.02.2.03.23.12.8.61.46,1.84.46,2.75,0,6.05-.06,12.52-.34,18.54-.04.78.13,1.97-.57,2.52-.66-.64-.45-1.72-.46-2.52-.03-2.77-.02-5.62.12-8.47.21-4.26.3-8.58.46-12.59.06-.09.12-.18.11-.34Z"/><path class="cls-9" d="m45.28,124.78c-.87-.58-.7-1.88-.8-2.86-.53-5.22-.64-11.56-.92-17.39-.13-2.69-.12-5.69.23-7.67.07-.16.18-.28.34-.34.1-.02.11.05.12.11.7.65.53,2.05.57,3.2.23,5.87.31,12.08.69,17.96.08,1.21.12,2.42.12,3.66,0,1.07.27,2.37-.34,3.32Z"/><path class="cls-9" d="m80.06,99.95c.33,1.45.31,3.38.23,5.15-.08,1.74-.17,3.58-.92,4.58-.76-.26-.46-1.34-.46-2.06,0-2.29.12-5.38.34-7.32v-.34h.8Z"/><path class="cls-9" d="m54.2,103.27c.13-.02.2.03.23.12.54.47.3,1.26.34,1.95.24,4.13.68,9.45.34,14.07-.04.61.02,1.52-.69,1.71-.55-1.31-.5-2.92-.57-4.58-.18-4.14-.01-9.3.23-12.93-.03-.18.11-.2.12-.34Z"/><path class="cls-9" d="m49.74,104.76c.71.4.52,1.46.57,2.17.38,4.84.36,10.8.11,15.9-.04.79.26,1.72-.34,2.29-.78-.09-.64-1.23-.69-1.83-.18-2.23-.23-4.66-.23-7.21,0-3.55-.34-7.22-.12-9.84.05-.56.17-1.54.57-1.49h.11Z"/><path class="cls-9" d="m36.47,115.86c.76,1.41,1.15,3.32,1.49,5.15.35,1.87.64,3.85.57,5.72-.83-.19-1.02-1.24-1.26-2.06-.64-2.24-1.28-6.08-1.26-8.47-.03-.18.11-.2.11-.34h.34Z"/><path class="cls-8" d="m24.22,128.21c.04-.57.3.09.57,0,16.66-1.48,34.24-2.69,51.03-4.23,2.46-.22,4.95-.24,7.32-.57.23-.03.96-.54,1.37.11.07.11.03.6.11.92.38,1.49.81,4.03,1.14,5.26,1.75,6.43,3.67,13.89,5.26,20.25,1.63,6.53,3.5,13.47,4.58,21.05.17,1.23.28,2.51.46,3.78.65,4.58-.52,7.92-3.43,9.61-2.88,1.67-8.43,1.67-12.82,1.83-5.28.2-8.74.42-13.84.8-4.26.31-9.41.34-14.19,0-5.3-.38-10.59-.81-12.93-3.78-1.21-1.53-1.81-3.98-2.52-6.29-4.78-15.59-8.65-32.21-12.13-48.74Z"/><path class="cls-3" d="m85.9,180.04c-1.33.01-1.66-1.53-2.06-2.4-1.35-2.96-2.61-6.21-3.78-9.5-1.5-4.22-3.22-8.55-4.69-12.93-2.52-7.5-5.24-15.45-7.78-23.23-.41-1.26-1.08-2.79-.46-3.55,1.9-1,3.31,3.34,4,5.15.93,2.45,1.55,4.65,2.17,6.64,3.59,11.46,7.23,22.15,11.1,33.18.37,1.07.79,2.24,1.14,3.32.33,1.01,1,2.3.34,3.32Z"/><path class="cls-3" d="m79.03,136.68c1.22-.82,1.6,1.41,2.06,2.75,2.3,6.64,4.54,13.33,6.29,20.94.18.77.27.56.34,1.94.04.69.09,1.35-.46,1.49-1.01.25-1.65-2.16-1.83-2.75-1.8-5.7-3.6-11.37-5.26-17.17-.28-.98-.64-2.21-.92-3.54-.23-1.13-.6-3.16-.23-3.66Z"/><path class="cls-1" d="m42.04,175.54c-.74.22-1.43.63-1.63,1.45-.45,1.83,1.62,5.99,3.12,4.14.9-1.1-.33-4.87-1.48-5.59Z"/><path class="cls-1" d="m39.35,171.01c2.28.05,1.18-6.61-.27-8.8-.56-.84-1.52-1.53-2.3-1.3-2.16.65.58,10.05,2.57,10.1Z"/><path class="cls-7" d="m127.2,157.5c8.49-.4,17.84.17,26.32.69,2.61.16,6.03.19,7.32,1.95,1.72,2.34.25,8.18-.34,10.76-1.11,4.83-2.74,9.5-6.29,11.78-3.56,2.29-8.69,3.41-13.96,4.35-4.92.87-10.56,1.34-16.48,1.72-12.55.8-28.03,1.38-33.87-5.38-2.54-2.94-3.85-7.21-5.03-11.67-.56-2.09-1.08-4.52-1.37-6.98-.33-2.77-.08-5.51,1.71-6.29.98-.43,1.86,0,3.2,0,1.54,0,3.09-.29,4.69-.34,4.76-.17,9.81.05,14.76,0,3.22-.04,6.34-.3,9.5-.34,3.25-.05,6.57-.07,9.84-.23Z"/><path class="cls-5" d="m81.53,149.15c.34-.69.89-1.3,1.37-1.83.57-.63,1.36-1.28,2.4-1.37,1.68-.15,2.31.92,3.55,1.14,1.33.24,2.99.07,4.46.12,9.95.33,20.13.89,30.09,1.37,9.05.44,17.2-.43,26.09-.8,4.01-.17,11.4-1.59,13.27,1.26,1.14,1.74.87,8.58-.34,10.41-1.26,1.9-5.94,2.29-9.5,2.63-6.66.64-13.41.41-20.02.34-9.65-.1-19.59-1.46-29.52-1.14-3.11.1-6.31.42-9.61.69-3.23.26-7.39.54-9.27-.46-1.62-.86-2.38-2.97-2.75-5.26-.38-2.39,0-5.03-.23-7.09Zm4.81-2.06c-.31.07-.91-.15-1.03.12.31-.07.91.14,1.03-.12Z"/><path class="cls-6" d="m164.85,137.59c.56.09.12.49.57.69,2.27,1.45,6.4,3.49,7.21,6.75.68,2.76-.88,5.22-3.2,5.61-4.1.67-6.69-1.45-9.15-2.86.46,4.8.78,11.11-3.55,11.67-2.53.33-5.1-1.06-6.98-2.29-2.01-1.31-3.54-2.92-4.69-4.46-.68,3.69-1.94,7.52-4.35,9.5-1.14.93-3.37,1.92-5.61,1.37-4.78-1.17-7.69-6.2-8.7-11.21-1.41,2.23-2.7,5.65-5.38,6.64-1.48.54-3.2.2-4.46-.8-1.7-1.34-2.44-3.47-3.09-6.06-1.56,3.46-3.89,8.94-7.32,10.98-.89.53-2.81.98-4.12.46-.7-.28-1.57-1.09-2.06-1.72-1.56-2-2.42-5.58-2.06-9.04-1.81,1.08-4.03,4.81-7.09,4.35-2.4-.36-1.96-4.77-1.03-6.87-.7.11-1.37.81-2.17,1.26-1.4.79-3.79,1.94-5.95,1.03-1.46-.62-2.2-2.38-2.29-4-.25-4.35,2.56-7.51,4.35-9.96,3.99,2,11.37,1.94,17.39,2.29,5.22.31,9.84,1.75,15.22,1.49,3.9-.19,8.02-.94,12.47-.92,4.38.02,8.62.45,12.81.23,4.34-.23,8.48-.57,12.36-1.03,2.84-.34,5.5-1.19,7.9-2.06,1.01-.37,2.03-.68,2.97-1.03Z"/><path class="cls-7" d="m125.71,99.61c6.05-.29,12.85.32,17.62,1.95,9.6,3.27,15.81,10.41,19.68,19.45,1.64,3.83,4.23,12.85,1.37,17.39-2.9,4.59-11.58,4.76-19.45,5.04-16.97.59-31.83-.57-48.86-.57-1.53,0-3.29-.05-4.92-.11-2.38-.09-4.31-.3-5.72-1.15-.82-.49-1.95-1.14-2.4-1.83-1.33-2.02-1.44-6.1-1.26-9.27.58-10.17,4.3-16.85,10.64-21.28,3.88-2.71,8.93-5.15,14.65-6.75,2.8-.78,5.75-1.31,8.81-1.83,3.17-.54,6.31-.86,9.84-1.03Z"/><path class="cls-9" d="m115.53,101.1c.42-.02,1.45-.08,1.6,1.03.18,1.31-1.05,1.67-2.06,2.17-.9.45-3.64,1.96-4,.23-.31-1.45,3.15-3.36,4.46-3.43Z"/><path class="cls-9" d="m130.06,103.61c1.82-.27,5.39-.13,4.69,2.63-.33,1.3-2.79,1.48-4.35,1.6-1.96.16-4.35.05-4-1.94.12-.68.73-.77,1.26-1.14.47-.33.96-.9,1.37-1.03.35-.11.62-.05,1.03-.11Z"/><path class="cls-9" d="m143.91,104.41c1.17-.28,3.44.88,3.55,2.06.21,2.23-2.38,1.56-3.55.8-.82-.54-1.75-2.44,0-2.86Z"/><path class="cls-9" d="m113.59,108.88c.83,1.29-.45,2.15-1.37,2.86-.73.56-2.6,2.09-3.32.8-.23-.41-.13-1.5.23-2.06.18-.28,2.31-1.85,2.98-1.95.63-.09,1.11.1,1.49.34Z"/><path class="cls-9" d="m101.46,108.99c.49-.03,1.61.08,1.72,1.26.12,1.3-1.94,2.92-2.63,3.55-.6.55-2.57,2.45-3.89,2.29-.38-.05-1.11-.44-1.26-1.03-.4-1.56,1.34-2.84,2.17-3.66,1.21-1.19,2.3-2.29,3.89-2.4Z"/><path class="cls-9" d="m147.91,113.68c1.67-.4,2.6,1.11,3.66,2.52.87,1.16,1.75,2.48,1.49,3.89-.15.82-1.05,1.56-1.83,1.6-1.73.09-3.22-2.84-4.12-4.46-.82-1.47-.82-3.16.8-3.55Z"/><path class="cls-9" d="m132.01,115.17c1.61-.4,4.07,1.52,4.23,2.97.1.88-.4,1.69-1.03,1.83-1,.22-3.42-1.28-3.89-1.94-.23-.33-.64-1.43-.46-2.06.14-.48.74-.7,1.15-.8Z"/><path class="cls-9" d="m116.56,122.83c-1.25-1.46,1.62-4.55,3.2-4.69.9-.08,1.81.44,1.83,1.37.03,1.09-1.97,2.95-2.86,3.32-.69.28-1.46.28-2.17,0Z"/><path class="cls-9" d="m87.16,122.61c.03-.25-.04-.5,0-.8.09-.64,2.02-3.37,3.2-2.06.87,1.88-1.64,4.49-3.2,2.86Z"/><path class="cls-9" d="m104.09,123.06c.62-.12,1.65-.05,1.83,1.03.2,1.19-.86,2.32-1.49,3.09-.84,1.03-1.77,1.97-2.75,1.83-1.56-.23-1.21-2.36-.46-3.55.57-.9,1.64-2.17,2.86-2.4Z"/><path class="cls-9" d="m158.55,126.15c-1.4-1.25.65-3.73,1.83-2.06.26,1.28.95,4.1-.8,4.12-.73,0-1.46-.86-1.03-2.06Z"/><path class="cls-3" d="m108.82,179.47c-.14-.76-.09-1.56.54-2.12,1.42-1.25,6.06-1.31,5.11.86-.57,1.3-4.48,1.95-5.65,1.25Z"/><path class="cls-3" d="m106.79,180.89c1.5,2.25-3.5,3.68-4.16,1.94-.69-1.82,3.17-3.42,4.16-1.94Z"/><path class="cls-3" d="m103.69,177.41c1.1,2.01-5.33,4.08-7.94,3.8-1-.11-2.06-.64-2.21-1.44-.41-2.21,9.19-4.1,10.15-2.36Z"/><path class="cls-3" d="m151.81,137.74c2.83,3.41-9.49,4.7-9.65,1.55-.14-2.71,7.89-2.56,9.65-1.55Z"/><path class="cls-3" d="m138.71,140.89c-1.32.91-5.33,1.28-5.17-.8.14-1.78,6.24-2.13,5.17.8Z"/><path class="cls-7" d="m10.82,174.19c1.66-.55,5.66-1.47,5.8.9.12,2.01-2.4,2.34-3.86,3.04.79.8,1.58,1.48,2.46,2.45.7.76,1.88,1.97,1.55,3.24-.12.48-.72.95-1.32.98-1.92.09-3.62-2.88-4.85-3.59.13,2.32.34,5.94-1.9,5.58-1.92-.31-2.05-4.83-1.77-7.35-2.47.28-6.56.73-6.89-1.62-.39-2.77,3.91-2.49,6.35-1.89.07-2.28.48-6.14,1.63-7.09.6-.5,1.48-.43,2,.03,1.09.98.73,3.19.81,5.33Z"/><path class="cls-7" d="m9.58,206.65c-2.42,0-1.6,6.76.43,6.77.34,0,.88-.13,1.19-.47.89-.97.18-5.09-.44-5.84-.26-.32-.79-.45-1.18-.45Z"/><path class="cls-7" d="m13.85,199.28c2.55-1.6,4.51,6.37,1.32,6.37-1.91,0-2.61-5.55-1.32-6.37Z"/><path class="cls-7" d="m38.06,211.6c2.05.18,7.12-1.16,7.41.9.19,1.38-1.87,2.15-2.99,2.76-1.39.76-2.66,1.27-3.87,1.85.33,1.51.45,2.76.81,4.62.22,1.1,1.18,3.59-.2,3.96-1.46.4-2.21-1.81-2.77-2.86-.74-1.41-1.35-2.47-1.72-3.87-.45-.22-.65.42-.91.62-.89.73-1.81,1.58-2.86,2.38-1.26.97-5.64,3.99-6.03.79-.17-1.37.98-3.05,1.74-4.32.88-1.47,1.9-2.7,2.37-3.67-.66-.77-4.49-1.59-4.04-3.4.47-1.87,4.07.1,5.37.35,1.12-2.63,2.15-7.51,4.5-8.62.27-.13,1,.19,1.27.41.76.6,1.09,2.41,1.34,3.73.28,1.46.32,3,.56,4.36Z"/><path class="cls-10" d="m59.74,54.02c5.62-3.85,11.94-4.29,8.53-7.97-4.04-4.35-4.2-4.03-4.15-4.78,4.35-.99,6.45-.89,7.61-1.26,1.72-.56,1.36-2.87-.43-2.96-.58-.03-.65.01-9.65,1.39-2.26.35-2.78,1.77-1.86,3.25.38.61.15.28,5.42,5.66-.85.94-2.23.93-7.42,4.1-2.59,1.58-2.68,2.97-.29,4.77,4.91,3.71,4.97,3.49,5.29,4.13-.49.67-1.25,1.1-1.88,1.67-6.19,5.54-7.45,6.2-1.54,10.02,1.94,1.26,3.63-.86,1.81-2.51-.68-.61-1.75-.84-1.76-1.56,0-.87,1.01-1.33,1.64-1.9,1.29-1.17,2.6-2.33,3.98-3.39,2.5-1.9,2.02-3.47-.14-4.91-1.69-1.12-3.29-2.39-5.17-3.77"/><path class="cls-7" d="m163.61,23.16c1.64-.34,1.31,1.64,1.24,2.88-.09,1.66.56,3.57,1.36,4.07.82.52,1.71.07,1.91,1.17.22,1.17-.76,1.33-1.47,1.52-1.87.49-2.41.92-2.55,3.04-.1,1.54.28,3.18-1.15,3.21-1.95.05-.94-3.65-1.98-5.46-.24-.42-.53-.78-.91-.98-.44-.24-2.01-.2-2.12-1.37-.03-.32.24-.9.58-1.11.62-.38.97-.09,1.39-.22,1.48-.44,2.12-2.26,2.43-4.03.22-1.25.1-2.48,1.26-2.72Z"/><path class="cls-7" d="m108.4,7.39c1.11.31,2.69.26,2.86,1.63.21,1.73-2,1.73-2.87,2.57-1.47,1.41-.95,4.23-1.41,6.63-.12.62-.2,1.47-1.21,1.6-1.28.16-1.53-1.08-1.86-2.54-.59-2.6-1.62-4.82-3.37-5.64-1.06-.5-2.27-.08-2.45-1.53-.18-1.44,1.18-1.33,2.25-1.97,1.71-1.02,2.05-3.41,2.31-5.77.06-.53,0-1.22.13-1.5.46-1.01,2.17-1.26,2.83-.13.37.64.21,1.57.36,2.41.34,1.91,1.09,3.25,2.43,4.24Z"/><path class="cls-10" d="m41.04,63.64c.47-.82.14-1.74-.95-2.39-1.08-.65-5.04-3-6.63-3.68-2.43-1.03-3.47,1.83-1.43,2.87,3.96,2.02,7.8,5.32,9.02,3.2"/><path class="cls-10" d="m28.32,72.43c7.08-.62,7.48-.6,8.08-.88,1.6-.72.96-3-.32-2.93-2.82.14-5.66.18-8.45.73-1.65.32-1.76,3.3.68,3.08"/><path class="cls-10" d="m31.88,82.35c4.27-1.43,6.43-1.74,5.86-3.63-.26-.86-1.1-1.31-2.19-.98-1.67.5-3.31,1.09-4.94,1.69-1.86.68-1.19,3.75,1.27,2.92"/><path class="cls-7" d="m169.07,187.65c3.68-1.37,3.59,5.85-.04,5.13-2.29-.46-1.71-4.48.04-5.13Z"/><path class="cls-7" d="m157.35,193.71c3.69-1,3.11,5.99.64,6.71-3.35.97-3.11-3.33-2.23-5.19.44-.92.62-1.26,1.59-1.52Z"/><path class="cls-7" d="m166.18,205.66c3.62-1.2,2.85,5.42-.23,5.51-1.99.06-2.57-2.76-1.72-4.06.13-.2,1.51-1.3,1.96-1.45Z"/></svg>